<svg id="10015.io" viewBox="0 0 480 480" xmlns="http://www.w3.org/2000/svg" xmlns:xlink="http://www.w3.org/1999/xlink" >
	<path fill="#474bff" d="M451,272.5Q441,305,431,338Q421,371,382,376.5Q343,382,313,377.5Q283,373,261.5,388Q240,403,212,408.5Q184,414,170,384.5Q156,355,134,344Q112,333,91.5,314Q71,295,45.5,267.5Q20,240,34,208.5Q48,177,58.5,146.5Q69,116,101.5,105.5Q134,95,159,81Q184,67,212,48.5Q240,30,263,64Q286,98,316.5,95Q347,92,345.5,128Q344,164,368.5,177Q393,190,427,215Q461,240,451,272.5Z" />
</svg>